<svg fill="none" height="62" viewBox="0 0 62 62" width="62" xmlns="http://www.w3.org/2000/svg" xmlns:xlink="http://www.w3.org/1999/xlink"><clipPath id="a"><path d="m0 0h62v62h-62z"/></clipPath><g clip-path="url(#a)"><path d="m8.26667.8h45.46663c4.1238 0 7.4667 3.34294 7.4667 7.46667v45.46663c0 4.1238-3.3429 7.4667-7.4667 7.4667h-45.46663c-4.12373 0-7.46667-3.3429-7.46667-7.4667v-45.46663c0-4.12373 3.34294-7.46667 7.46667-7.46667z" stroke="#111827" stroke-width="1.6"/><g fill="#111827"><path d="m22.0166 29.0447c-.4915 0-.9628-.1954-1.3103-.5434-.3475-.3479-.5428-.8198-.5428-1.3119v-8.9767c.0165-.4814.219-.9375.565-1.2722.3459-.3347.8081-.5218 1.2892-.5218.481 0 .9433.1871 1.2892.5218s.5484.7908.5649 1.2722v2.5991h15.4638c.3658.0022.7228.1126 1.0261.3174s.5394.4948.6785.8335c.1392.3388.1752.7112.1035 1.0704-.0717.3591-.2478.6891-.5062.9483l-12.9149 12.9394h11.4808v-2.8446c-.0085-.2492.0332-.4974.1225-.7301.0894-.2327.2246-.445.3976-.6242.173-.1793.3803-.3218.6095-.4192.2292-.0973.4756-.1475.7245-.1475.249 0 .4954.0502.7246.1475.2292.0974.4365.2399.6095.4192.173.1792.3082.3915.3976.6242.0893.2327.131.4809.1225.7301v8.9767c-.0006.4923-.1963.9642-.5442 1.3121-.3478.3478-.8194.5432-1.311.5432-.4915 0-.9628-.1954-1.3103-.5434-.3475-.3479-.5428-.8198-.5428-1.3119v-2.4193h-15.9571c-.3659-.0022-.7229-.1126-1.0262-.3174s-.5393-.4948-.6785-.8336c-.1391-.3387-.1751-.7111-.1035-1.0703.0717-.3592.2478-.6891.5063-.9484l12.9148-12.9393h-10.9874v2.6648c0 .2439-.048.4853-.1413.7105-.0932.2253-.2299.4299-.4022.6022s-.3769.3089-.6019.402c-.2251.0931-.4663.1409-.7098.1406z"/><path d="m16.6265 27.4483c-.4917-.0006-.963-.1965-1.3105-.5448-.3474-.3483-.5426-.8204-.5426-1.3127v-5.7788c.0165-.4814.219-.9375.565-1.2722.3459-.3347.8081-.5218 1.2892-.5218.481 0 .9432.1871 1.2892.5218.3459.3347.5484.7908.5649 1.2722v5.7788c0 .4926-.1955.9651-.5434 1.3134-.3479.3484-.8198.5441-1.3118.5441z"/><path d="m45.0147 42.9503c.3475.3479.8189.5434 1.3103.5434.4915 0 .9628-.1955 1.3103-.5434s.5428-.8199.5428-1.3119v-5.781c0-.4921-.1953-.964-.5428-1.3119-.3475-.348-.8188-.5434-1.3103-.5434-.4914 0-.9628.1954-1.3103.5434-.3475.3479-.5427.8198-.5427 1.3119v5.781c0 .492.1952.964.5427 1.3119z"/></g></g></svg>