<svg fill="none" height="24" viewBox="0 0 24 24" width="24" xmlns="http://www.w3.org/2000/svg"><g fill="#111827"><path d="m5.77027 10.9204c-.32367 0-.63408-.1303-.86295-.3624-.22887-.232-.35744-.5467-.35744-.87488v-5.9867c.01083-.32102.14423-.62523.37205-.84844.22781-.22321.53224-.34798.84906-.34798.31681 0 .62124.12477.84906.34798s.36121.52742.37205.84844v1.73336h10.1843c.2409.00147.4761.07512.6758.2117.1998.13658.3552.32998.4469.5559.0916.22592.1153.47426.0681.71381-.0472.23954-.1632.45959-.3334.63248l-8.50558 8.62943h7.56118v-1.8971c-.0056-.1662.0218-.3318.0806-.4869.0589-.1552.1479-.2968.2619-.4163.1139-.1196.2504-.2146.4014-.2796.1509-.0649.3132-.0984.4772-.0984s.3262.0335.4772.0984c.1509.065.2874.16.4014.2796.1139.1195.203.2611.2618.4163.0589.1551.0863.3207.0807.4869v5.9867c-.0004.3283-.1293.643-.3584.875s-.5396.3623-.8634.3623c-.3237 0-.6341-.1304-.863-.3624-.2288-.232-.3574-.5468-.3574-.8749v-1.6135h-10.50928c-.24093-.0015-.47605-.0751-.6758-.2117-.19976-.1366-.35522-.33-.44686-.5559-.09163-.2259-.11535-.4743-.06815-.7138.04719-.2396.16319-.4596.33339-.6325l8.5056-8.62942h-7.2362v1.77724c0 .16261-.03162.32358-.09304.47388-.06142.1502-.15144.2866-.26491.4016-.11348.1149-.24818.206-.39641.2681s-.30708.0939-.46747.0937z"/><path d="m2.2204 9.85576c-.32381-.00038-.63421-.13107-.86304-.36334s-.35736-.54714-.35736-.87544v-3.85397c.01083-.32102.14423-.62523.37205-.84844s.53225-.34798.84906-.34798.62124.12477.84906.34798.36122.52742.37205.84844v3.85397c0 .32855-.12873.64364-.35786.87595-.22914.23232-.53992.36283-.86396.36283z"/><path d="m20.9167 20.1942c.2288.2321.5392.3624.8629.3624s.6341-.1303.863-.3624c.2288-.232.3574-.5467.3574-.8749v-3.8554c0-.3282-.1286-.6429-.3574-.8749-.2289-.2321-.5393-.3625-.863-.3625s-.6341.1304-.8629.3625c-.2289.232-.3575.5467-.3575.8749v3.8554c0 .3282.1286.6429.3575.8749z"/></g></svg>