<svg fill="none" height="24" viewBox="0 0 24 24" width="24" xmlns="http://www.w3.org/2000/svg"><g fill="#111827"><path clip-rule="evenodd" d="m14.7761 2.49314c0-.30292-.1725-.57939-.4446-.71247-.2721-.13309-.5963-.09956-.8354.08642l-6.92327 5.38476h-4.48659c-.4207 0-.82416.16712-1.121642.4646-.297477.29748-.464598.70094-.464598 1.12164v6.34491c0 .4207.16712.8242.464598 1.1217.297482.2975.700942.4646 1.121642.4646h4.48659l6.92327 5.3847c.2391.186.5633.2195.8354.0865.2721-.1331.4446-.4096.4446-.7125zm-7.13803 13.09516v-7.15543l5.55183-4.31809v15.79152zm-1.58624-6.75021v6.34491h-3.96559v-6.34491z" fill-rule="evenodd"/><path d="m21.1757 6.40283c-.3101-.30937-.8123-.30879-1.1217.0013-.3093.31009-.3087.81227.0013 1.12164.5899.58845 1.0578 1.28748 1.3771 2.05704.3193.76959.4836 1.59459.4836 2.42769 0 .8332-.1643 1.6582-.4836 2.4277-.3193.7696-.7872 1.4686-1.3771 2.0571-.31.3093-.3106.8115-.0013 1.1216.3094.3101.8116.3107 1.1217.0013.7375-.7358 1.3226-1.6098 1.7218-2.5721.3993-.9622.6048-1.9938.6048-3.0356s-.2055-2.07332-.6048-3.03557c-.3992-.96225-.9843-1.8363-1.7218-2.5721z"/><path d="m18.3695 9.20814c-.3103-.30914-.8125-.30817-1.1216.00215-.3092.31033-.3082.81251.0021 1.12161.221.2202.3964.4818.516.7698.1197.2881.1813.597.1813.9089s-.0616.6208-.1813.9088c-.1196.2881-.295.5497-.516.7699-.3103.3091-.3113.8113-.0021 1.1216.3091.3103.8113.3113 1.1216.0022.369-.3676.6617-.8043.8614-1.2852.1998-.4809.3026-.9966.3026-1.5173s-.1028-1.0364-.3026-1.5173c-.1997-.4809-.4924-.91765-.8614-1.28516z"/></g></svg>