<svg fill="none" height="24" viewBox="0 0 24 24" width="24" xmlns="http://www.w3.org/2000/svg"><path clip-rule="evenodd" d="m10.3309 3.21501c.1966.18716.2718.46047.1966.71508-.3875 1.31265-.4002 2.69963-.0368 4.01849s1.0897 2.52212 2.1045 3.48602c1.0147.964 2.2812 1.6541 3.6695 1.9993s2.8483.3331 4.23-.035c.268-.0714.5557 0 .7527.1868s.2727.46.1981.7147c-.4514 1.5409-1.32 2.9424-2.519 4.0651-1.1991 1.1228-2.6869 1.9274-4.3152 2.3339s-3.3402.4006-4.9654-.0171c-1.62515-.4177-3.10675-1.2326-4.29721-2.3635-1.19047-1.1309-2.04826-2.5385-2.48793-4.0824s-.44588-3.1702-.018-4.71712c.42788-1.54688 1.27491-2.96027 2.45671-4.09938 1.18181-1.13912 2.65715-1.9642 4.27908-2.39306.26814-.07091.55565.00102.75235.18817z" fill="#111827" fill-rule="evenodd"/></svg>