<svg fill="none" height="24" viewBox="0 0 24 24" width="24" xmlns="http://www.w3.org/2000/svg"><path d="m11.9938 23.25c-3.07334 0-3.43564-.0162-4.63497-.0686-.93527-.0307-1.85843-.2206-2.72973-.5614-1.50753-.5858-2.69958-1.7766-3.28568-3.2822-.32818-.8732-.505197-1.7958-.523459-2.7283-.069961-1.1951-.069961-1.5868-.069961-4.632 0-3.07755.016241-3.43683.069961-4.6282.018662-.93124.195669-1.85253.523459-2.72455.58546-1.50757 1.77945-2.69939 3.28942-3.28343.87282-.32909 1.79569-.50631 2.72849-.523955 1.19308-.067365 1.58537-.067365 4.63247-.067365 3.0982 0 3.4543.016218 4.6349.067365.9352.017798 1.8605.194995 2.736.523955 1.5095.58471 2.7033 1.77629 3.2894 3.28343.3337.88472.5116 1.82042.5259 2.76572.07 1.19511.07 1.58558.07 4.62953 0 3.0439-.0175 3.4431-.07 4.6245-.0186.9333-.196 1.8568-.5247 2.7307-.5876 1.5067-1.7814 2.6979-3.2906 3.2835-.8742.3271-1.7977.5038-2.731.5227-1.1931.0686-1.5841.0686-4.6399.0686zm-.0425-20.5252c-3.05582 0-3.37315.01497-4.56624.06861-.71212.00942-1.41736.14065-2.08509.38798-.98601.37675-1.76623 1.15268-2.14755 2.13573-.2496.67402-.38103 1.38595-.38854 2.10454-.06621 1.20883-.06621 1.5257-.06621 4.55584 0 2.9941.01124 3.3571.06621 4.5584.01118.7114.14254 1.4157.38854 2.0834.38188.9824 1.16197 1.7577 2.14755 2.1344.66727.249 1.3728.3803 2.08509.388 1.20933.0699 1.52791.0699 4.56624.0699 3.0645 0 3.3818-.015 4.5649-.0699.7126-.0086 1.4184-.1399 2.0864-.388.98-.38 1.7552-1.1535 2.1363-2.1319.2491-.6746.3805-1.3869.3885-2.1058h.0138c.0537-1.1926.0537-1.5108.0537-4.5584 0-3.04767-.0138-3.36828-.0675-4.55965-.0112-.71051-.1425-1.41403-.3885-2.08083-.3803-.97983-1.1555-1.75488-2.1363-2.13573-.6678-.24858-1.3737-.37984-2.0864-.38798-1.208-.06861-1.5241-.06861-4.5649-.06861zm.0425 15.015c-2.33626.0015-4.4433-1.4026-5.3385-3.5573-.8952-2.1548-.40222-4.63593 1.24902-6.28622 1.65123-1.65028 4.13548-2.1447 6.29418-1.25265 2.1586.89204 3.5665 2.99483 3.567 5.32767-.0034 3.1825-2.5847 5.7623-5.7717 5.7685zm0-9.5135c-2.06996 0-3.74796 1.67558-3.74796 3.7425 0 2.0669 1.678 3.7425 3.74796 3.7425 2.0699 0 3.7479-1.6756 3.7479-3.7425-.0048-2.06493-1.68-3.7377-3.7479-3.7425zm5.9966-.88947c-.7428-.00276-1.3431-.60556-1.3417-1.3473.0013-.74174.6039-1.34232 1.3467-1.34232s1.3454.60057 1.3468 1.34231c.0003.35786-.1421.70113-.3957.95394-.2537.25281-.5977.39436-.9561.39337z" fill="#111827"/></svg>