<svg fill="none" height="24" viewBox="0 0 24 24" width="24" xmlns="http://www.w3.org/2000/svg"><path clip-rule="evenodd" d="m5.24996 5.84996c-.23869 0-.46761.09482-.63639.26361-.16879.16878-.26361.3977-.26361.63639v9.75004h15.30004v-9.75004c0-.23869-.0949-.46761-.2636-.63639-.1688-.16879-.3977-.26361-.6364-.26361zm-2.1 10.65004h-.89996v1.5c0 .3978.15804.7794.43934 1.0607s.66284.4393 1.06066.4393h16.5c.3978 0 .7794-.158 1.0607-.4393s.4393-.6629.4393-1.0607v-1.5h-.9v-9.75004c0-.55695-.2213-1.09109-.6151-1.48492s-.928-.61508-1.4849-.61508h-13.50004c-.55695 0-1.09109.22125-1.48492.61508s-.61508.92797-.61508 1.48492zm7.35004-8.85004c-.3314 0-.60004.26863-.60004.6s.26864.6.60004.6h3c.3313 0 .6-.26863.6-.6s-.2687-.6-.6-.6z" fill="#111827" fill-rule="evenodd"/></svg>