<svg fill="none" height="24" viewBox="0 0 24 24" width="24" xmlns="http://www.w3.org/2000/svg"><g clip-rule="evenodd" fill="#111827" fill-rule="evenodd"><path d="m5.77454 3.7839c0 1.2451-.94804 2.25274-2.43061 2.25274-1.42481 0-2.372852-1.00764-2.34351-2.25274-.029342-1.30561.91868-2.2839 2.37191-2.2839 1.45415 0 2.37379.97829 2.40221 2.2839zm-4.65492 18.5353v-14.50294h4.50729v14.50204h-4.50729z"/><path d="m9.2398 12.4446c0-1.809-.0596-3.35118-.11919-4.62653h3.91499l.2081 1.98685h.089c.5932-.91962 2.0758-2.31234 4.478-2.31234 2.9651 0 5.1894 1.95751 5.1894 6.22642v8.602h-4.5073v-8.0372c0-1.8695-.6519-3.1439-2.283-3.1439-1.246 0-1.9868.86-2.283 1.6897-.1192.2971-.1779.7115-.1779 1.1278v8.3636h-4.50728v-9.8764z"/></g></svg>