<svg fill="none" height="24" viewBox="0 0 24 24" width="24" xmlns="http://www.w3.org/2000/svg"><path d="m11.2432 2.60001v6.26838c-.5066.27779-.8513.82579-.8513 1.45641 0 .9114.72 1.6502 1.6081 1.6502s1.6081-.7388 1.6081-1.6502c0-.63062-.3447-1.17862-.8513-1.45641v-6.26838h2.8711c.3005 0 .5826.14732.7577.39571l5.9398 8.42698c.2328.3302.2328.7744 0 1.1046l-5.9398 8.427c-.1751.2484-.4572.3957-.7577.3957h-7.329c-.30245 0-.5861-.1492-.76086-.4002l-5.86666-8.427c-.22851-.3282-.22851-.7674 0-1.0956l5.86666-8.42695c.17476-.25103.45841-.40024.76086-.40024z" fill="#111827"/></svg>