<svg fill="none" height="62" viewBox="0 0 62 62" width="62" xmlns="http://www.w3.org/2000/svg" xmlns:xlink="http://www.w3.org/1999/xlink"><clipPath id="a"><path d="m0 0h62v62h-62z"/></clipPath><g clip-path="url(#a)"><path d="m8.26667.8h45.46663c4.1238 0 7.4667 3.34294 7.4667 7.46667v45.46663c0 4.1238-3.3429 7.4667-7.4667 7.4667h-45.46663c-4.12373 0-7.46667-3.3429-7.46667-7.4667v-45.46663c0-4.12373 3.34294-7.46667 7.46667-7.46667z" stroke="#111827" stroke-width="1.6"/><path d="m29.7825 16.085v9.9726c-.8151.4419-1.3698 1.3138-1.3698 2.3171 0 1.4499 1.1584 2.6253 2.5873 2.6253 1.429 0 2.5873-1.1754 2.5873-2.6253 0-1.0033-.5546-1.8752-1.3697-2.3171v-9.9726h4.6194c.4835 0 .9374.2343 1.2191.6295l9.5567 13.4068c.3744.5253.3744 1.2321 0 1.7574l-9.5567 13.4068c-.2817.3952-.7356.6296-1.2191.6296h-11.7917c-.4866 0-.943-.2374-1.2242-.6368l-9.4389-13.4068c-.3677-.5222-.3677-1.2208 0-1.743l9.4389-13.4068c.2812-.3994.7376-.6367 1.2242-.6367z" fill="#111827"/></g></svg>