<svg fill="none" height="24" viewBox="0 0 24 24" width="24" xmlns="http://www.w3.org/2000/svg"><path d="m12 0c-6.62727 0-12 5.37218-12 12 0 6.6278 5.37273 12 12 12 6.6273 0 12-5.3722 12-12 0-6.62782-5.3727-12-12-12zm5.8545 17.2987c-.1927.3413-.5472.5333-.9127.5333-.1709 0-.3473-.0427-.5091-.1327-1.4982-.84-3.1309-1.3546-4.8563-1.5293-1.72912-.1733-3.4364.0022-5.0764.5258-.54727.1747-1.13636-.1276-1.3109-.6758-.17637-.5491.12727-1.1362.67636-1.3118 1.91272-.6111 3.90726-.8189 5.92184-.6142 2.0109.2047 3.9163.8047 5.6654 1.7851.5037.2804.6837.9164.4018 1.4196zm1.4364-3.6449c-.1854.3569-.5491.5617-.9254.5617-.1637 0-.3273-.0375-.4819-.1184-1.8418-.9593-3.8309-1.5533-5.9163-1.7649-2.10185-.2151-4.18366-.0277-6.19093.5513-.55455.1574-1.13273-.1597-1.29091-.714-.16-.5535.15999-1.1317.71272-1.2915 2.26545-.6533 4.61454-.8625 6.98002-.6225 2.3491.2392 4.5927.9083 6.6709 1.9912.5091.2664.7091.8962.4418 1.4071zm.52-3.0323c-.1564 0-.3145-.0353-.4654-.1095-2.1855-1.08982-4.5364-1.76854-6.9891-2.01745-2.45641-.25128-4.90004-.05709-7.26549.57454-.55636.14764-1.12728-.18236-1.27637-.73964-.14909-.55654.18183-1.12872.74001-1.27727 2.6091-.69672 5.30727-.90891 8.01455-.63363 2.7036.27363 5.2964 1.0229 7.7073 2.22527.5163.25709.7254.88418.4691 1.39948-.1819.3667-.551.5782-.9346.5782z" fill="#111827"/></svg>