<svg fill="none" height="24" viewBox="0 0 24 24" width="24" xmlns="http://www.w3.org/2000/svg"><path d="m20.7906 5.20851c.9857-.62178 1.7232-1.60085 2.0748-2.7544-.9262.57989-1.9395.98838-2.9962 1.20781-1.465-1.63533-3.7862-2.03329-5.6665-.97152s-2.8542 3.3204-2.3776 5.51384c-3.79379-.20098-7.32837-2.092-9.72419-5.2025-1.250338 2.27571-.61139 5.18484 1.46016 6.64816-.74909-.02542-1.48157-.23943-2.13637-.62421v.06265c.00043 2.37056 1.58372 4.41246 3.78566 4.88226-.69483.1995-1.42366.2289-2.13088.0859.61925 2.0272 2.38987 3.416 4.40799 3.4575-1.67146 1.3843-3.73566 2.135-5.86046 2.1313-.37662.0006-.752941-.0223-1.12701-.0684 2.15769 1.4631 4.66898 2.2397 7.23377 2.2369 3.56823.0259 6.99743-1.4585 9.52043-4.1211 2.5231-2.6626 3.9295-6.2813 3.9047-10.04653 0-.21581-.0047-.43045-.0142-.64393.9241-.70473 1.7216-1.57775 2.3551-2.57805-.8609.40268-1.7741.66705-2.7092.78432z" fill="#111827"/></svg>